# xmcd
#
# Track frame offsets: 
#        150
#        13319
#        30166
#        47401
#        68749
#        88987
#        107526
#        122771
#        142851
#        158888
#        174359
#        191777
#
# Disc length: 2800 seconds
#
# Revision: 2
# Processed by: cddbd v1.5.2PL0 Copyright (c) Steve Scherf et al.
# Submitted via: ExactAudioCopyFreeDBPlugin 1.0
#
DISCID=950aee0c
DTITLE=Jaheim - The Makings of a Man
DYEAR=2007
DGENRE=R&B
TTITLE0=Voice of R&B
TTITLE1=Hush
TTITLE2=Have You Ever
TTITLE3=Lonely
TTITLE4=Life of a Thug
TTITLE5=Just Don't Have a Clue
TTITLE6=She Ain't You
TTITLE7=Never
TTITLE8=I've Changed (feat. Keyshia Cole)
TTITLE9=What You Think of That
TTITLE10=Make a Wish
TTITLE11=Back Together Again
EXTD=YEAR: 2007
EXTT0=
EXTT1=
EXTT2=
EXTT3=
EXTT4=
EXTT5=
EXTT6=
EXTT7=
EXTT8=
EXTT9=
EXTT10=
EXTT11=
PLAYORDER=
